<svg xmlns="http://www.w3.org/2000/svg" xmlns:xlink="http://www.w3.org/1999/xlink" width="500" zoomAndPan="magnify" viewBox="0 0 375 374.999991" height="500" preserveAspectRatio="xMidYMid meet" version="1.0"><defs><g/></defs><g fill="#323232" fill-opacity="1"><g transform="translate(143.349554, 227.974469)"><g><path d="M 11.5 0 L 11.5 -71.265625 L 1.03125 -71.265625 L 1.03125 -88.203125 L 39.640625 -88.203125 L 39.640625 -71.265625 L 29.15625 -71.265625 L 29.15625 0 Z M 11.5 0 "/></g></g></g><g fill="#323232" fill-opacity="1"><g transform="translate(184.014449, 227.974469)"><g><path d="M 24.953125 0.828125 C 17.835938 0.828125 12.429688 -1.34375 8.734375 -5.6875 C 5.035156 -10.039062 3.1875 -16.15625 3.1875 -24.03125 L 3.1875 -66.03125 C 3.1875 -73.625 5.035156 -79.351562 8.734375 -83.21875 C 12.429688 -87.09375 17.835938 -89.03125 24.953125 -89.03125 C 32.066406 -89.03125 37.472656 -87.09375 41.171875 -83.21875 C 44.867188 -79.351562 46.71875 -73.625 46.71875 -66.03125 L 46.71875 -24.03125 C 46.71875 -16.082031 44.867188 -9.953125 41.171875 -5.640625 C 37.472656 -1.328125 32.066406 0.828125 24.953125 0.828125 Z M 24.953125 -15.40625 C 26.523438 -15.40625 27.582031 -16.085938 28.125 -17.453125 C 28.675781 -18.828125 28.953125 -20.742188 28.953125 -23.203125 L 28.953125 -66.34375 C 28.953125 -68.257812 28.695312 -69.816406 28.1875 -71.015625 C 27.675781 -72.210938 26.632812 -72.8125 25.0625 -72.8125 C 22.113281 -72.8125 20.640625 -70.582031 20.640625 -66.125 L 20.640625 -23.109375 C 20.640625 -20.578125 20.945312 -18.660156 21.5625 -17.359375 C 22.175781 -16.054688 23.304688 -15.40625 24.953125 -15.40625 Z M 24.953125 -15.40625 "/></g></g></g><g fill="#323232" fill-opacity="1"><g transform="translate(233.92139, 227.974469)"><g><path d="M 3.90625 -88.203125 L 28.234375 -88.203125 C 34.535156 -88.203125 39.257812 -86.457031 42.40625 -82.96875 C 45.5625 -79.476562 47.171875 -74.3125 47.234375 -67.46875 L 47.4375 -26.1875 C 47.507812 -17.488281 46.003906 -10.945312 42.921875 -6.5625 C 39.835938 -2.1875 34.738281 0 27.625 0 L 3.90625 0 Z M 24.75 -15.609375 C 27.96875 -15.609375 29.578125 -17.179688 29.578125 -20.328125 L 29.578125 -65.828125 C 29.578125 -67.804688 29.421875 -69.289062 29.109375 -70.28125 C 28.804688 -71.28125 28.242188 -71.953125 27.421875 -72.296875 C 26.597656 -72.640625 25.332031 -72.8125 23.625 -72.8125 L 21.671875 -72.8125 L 21.671875 -15.609375 Z M 24.75 -15.609375 "/></g></g></g><g fill="#323232" fill-opacity="1"><g transform="translate(284.547132, 227.974469)"><g><path d="M 24.953125 0.828125 C 17.835938 0.828125 12.429688 -1.34375 8.734375 -5.6875 C 5.035156 -10.039062 3.1875 -16.15625 3.1875 -24.03125 L 3.1875 -66.03125 C 3.1875 -73.625 5.035156 -79.351562 8.734375 -83.21875 C 12.429688 -87.09375 17.835938 -89.03125 24.953125 -89.03125 C 32.066406 -89.03125 37.472656 -87.09375 41.171875 -83.21875 C 44.867188 -79.351562 46.71875 -73.625 46.71875 -66.03125 L 46.71875 -24.03125 C 46.71875 -16.082031 44.867188 -9.953125 41.171875 -5.640625 C 37.472656 -1.328125 32.066406 0.828125 24.953125 0.828125 Z M 24.953125 -15.40625 C 26.523438 -15.40625 27.582031 -16.085938 28.125 -17.453125 C 28.675781 -18.828125 28.953125 -20.742188 28.953125 -23.203125 L 28.953125 -66.34375 C 28.953125 -68.257812 28.695312 -69.816406 28.1875 -71.015625 C 27.675781 -72.210938 26.632812 -72.8125 25.0625 -72.8125 C 22.113281 -72.8125 20.640625 -70.582031 20.640625 -66.125 L 20.640625 -23.109375 C 20.640625 -20.578125 20.945312 -18.660156 21.5625 -17.359375 C 22.175781 -16.054688 23.304688 -15.40625 24.953125 -15.40625 Z M 24.953125 -15.40625 "/></g></g></g><path stroke-linecap="butt" transform="matrix(1.171492, 0, 0, 1.171492, 39.039102, 102.062468)" fill="none" stroke-linejoin="miter" d="M 29.97977 48.469212 C 33.42423 46.688629 37.005401 45.178135 40.719949 43.934395 C 44.431163 42.690655 48.155714 41.586961 51.886935 40.629981 L 54.25771 39.999775 C 56.391741 39.59631 58.525772 39.209517 60.659804 38.839396 C 62.793835 38.452603 64.96121 38.192518 67.165264 38.059141 C 67.635418 37.992452 68.095569 37.959108 68.54905 37.959108 C 69.002532 37.959108 69.466017 37.959108 69.936171 37.959108 C 67.952188 38.429262 65.928193 38.926091 63.86085 39.446261 C 61.793508 39.966431 59.759509 40.46326 57.758855 40.933414 C 54.247707 41.690328 50.753231 42.503928 47.272092 43.377547 C 43.794288 44.234494 40.339825 45.244824 36.912037 46.405203 C 35.734986 46.755318 34.574606 47.158783 33.434233 47.612265 C 32.307198 48.049074 31.156822 48.545903 29.97977 49.102752 C 29.709682 48.966041 29.709682 48.755972 29.97977 48.469212 Z M 87.912049 90.496289 C 87.778672 91.116492 87.431892 91.463272 86.878378 91.529961 C 83.097141 92.220186 79.289229 93.06713 75.457976 94.074126 C 71.643396 95.067784 67.912175 96.21816 64.264316 97.528589 C 62.550422 98.152126 60.809853 98.772329 59.045942 99.395866 C 57.298704 100.016069 55.558135 100.706295 53.827569 101.463209 L 53.727537 101.463209 C 53.660848 101.529897 53.557481 101.579914 53.424104 101.613258 C 53.290727 101.646602 53.154016 101.696619 53.020639 101.763307 C 52.467124 102.033395 51.893603 102.276808 51.306745 102.49688 C 50.719886 102.696946 50.146365 102.93369 49.592851 103.200444 L 49.492818 103.303811 C 49.089353 103.587237 48.315767 103.934017 47.172059 104.337482 C 46.045024 104.75762 44.978009 105.101065 43.971013 105.371154 C 42.980689 105.65458 42.48386 105.79796 42.48386 105.79796 C 42.48386 105.79796 42.357151 105.814632 42.103735 105.847976 C 41.870326 105.88132 41.650254 105.897993 41.450188 105.897993 C 40.626585 106.034704 39.79298 106.024701 38.952705 105.874652 C 38.129102 105.73794 37.515568 105.227773 37.112103 104.337482 C 36.912037 103.934017 36.878693 103.45386 37.01207 102.900346 C 35.701642 102.343497 34.684642 101.39652 33.961072 100.049413 C 33.240837 98.70564 33.120798 97.385209 33.610958 96.091452 C 33.324197 94.294198 33.097457 92.48694 32.927401 90.673014 C 32.76068 88.839081 32.610631 87.025154 32.473919 85.2279 L 31.213507 72.850518 L 29.97977 61.076668 C 28.669342 59.629528 28.122496 57.94231 28.339234 56.008344 C 28.542634 54.09105 29.399581 52.480524 30.913409 51.166761 C 30.980097 51.033384 31.046786 50.900007 31.113474 50.763295 C 31.180163 50.613246 31.246851 50.469866 31.316874 50.336489 C 32.423903 49.849663 33.524263 49.40285 34.617954 48.999385 C 35.728317 48.579248 36.835346 48.202458 37.945709 47.865681 C 41.373496 46.688629 44.827959 45.67163 48.305763 44.814683 C 51.786902 43.957736 55.281378 43.18415 58.792526 42.497259 C 61.550095 41.873721 64.264316 41.203502 66.938524 40.479932 C 69.626069 39.756362 72.313615 39.049465 75.004495 38.362573 C 75.357944 38.429262 75.718061 38.479278 76.088182 38.512622 C 76.474976 38.545967 76.801749 38.629327 77.071837 38.766039 L 78.735715 39.396245 C 79.002469 39.59631 79.272557 39.823051 79.542645 40.076467 C 79.826072 40.309877 80.106163 40.529949 80.372917 40.730014 C 80.726366 41.840377 80.969779 42.934068 81.10649 44.007753 C 81.239867 45.068099 81.206523 46.10844 81.003123 47.135442 L 75.834766 48.699287 C 74.727738 49.032729 73.567358 49.379509 72.356962 49.732958 C 71.163239 50.066401 69.979518 50.403178 68.802466 50.739954 C 68.532378 50.890003 68.332313 50.966695 68.198936 50.966695 C 66.885173 51.303472 65.348003 51.730278 63.584093 52.253783 C 61.836855 52.773953 60.079614 53.294123 58.315704 53.814293 C 56.568466 54.321125 55.071309 54.781276 53.827569 55.201413 C 52.600501 55.604879 51.843587 55.874967 51.560161 56.008344 C 49.912956 56.561858 48.255747 57.152051 46.59187 57.772254 C 44.944664 58.395791 43.330803 59.049338 41.753621 59.739564 L 41.550221 59.942964 C 41.616909 60.276406 41.70027 60.849927 41.803637 61.656858 C 41.90367 62.447116 42.003702 63.184024 42.103735 63.87425 C 42.223774 64.564475 42.28046 65.007954 42.28046 65.211354 C 45.171405 63.967613 48.045678 62.747214 50.90328 61.553491 C 53.760881 60.343095 56.668498 59.18605 59.626132 58.075687 C 61.273338 57.672221 62.937215 57.245415 64.617765 56.788599 C 66.314986 56.335117 67.988867 55.874967 69.632738 55.404813 L 70.969842 55.074705 C 71.593379 54.941328 72.19691 54.857968 72.787103 54.824623 C 73.373961 54.791279 73.977492 54.741263 74.601029 54.67124 C 75.911458 54.604551 77.148529 54.697915 78.305574 54.951332 C 79.482626 55.184741 80.416265 55.91498 81.10649 57.142048 C 81.239867 57.295431 81.323228 57.438812 81.356572 57.572189 C 81.389916 57.705566 81.439933 57.838943 81.506621 57.975654 C 81.643332 58.175719 81.743365 58.385788 81.810054 58.60586 C 81.876742 58.805925 81.953434 59.009325 82.036794 59.209391 C 82.103483 59.276079 82.173506 59.312758 82.240194 59.312758 C 83.197174 59.799584 83.777364 60.6632 83.977429 61.90694 C 84.197501 62.867254 84.047452 63.847574 83.523947 64.857905 C 83.003777 65.848229 82.263535 66.588471 81.306556 67.075296 C 80.196193 67.54545 79.072492 67.83888 77.928784 67.958919 C 76.801749 68.058951 75.658042 68.242345 74.500997 68.512433 C 73.257257 68.715833 71.996844 68.942574 70.71976 69.192656 C 69.442676 69.4294 68.188932 69.712826 66.961865 70.049602 C 64.474384 70.739828 62.003576 71.486739 59.54944 72.29367 C 57.111977 73.083928 54.694519 73.990891 52.2904 75.017894 C 50.776571 75.638097 49.316094 76.294978 47.902298 76.98187 C 46.491837 77.672095 45.064704 78.395665 43.617564 79.152579 L 44.221094 85.858106 C 44.221094 85.924794 44.221094 85.97481 44.221094 86.008155 C 44.221094 86.041499 44.221094 86.12486 44.221094 86.261571 L 44.551202 86.058171 C 45.711582 85.504657 46.861958 85.007828 48.005665 84.571018 C 49.146038 84.117536 50.26307 83.654052 51.356761 83.183898 L 60.12963 79.75611 C 60.886544 79.419333 61.660131 79.119235 62.450389 78.849147 C 63.25732 78.562386 64.037575 78.285629 64.794489 78.015541 C 66.021557 77.528715 67.255294 77.068565 68.499034 76.631755 C 69.742774 76.174939 70.979845 75.738129 72.206913 75.317992 L 76.238232 74.084255 C 76.79508 73.950878 77.348595 73.764151 77.902109 73.530741 C 78.458958 73.277325 79.002469 73.083928 79.542645 72.950551 C 81.5433 72.530414 83.180502 72.707138 84.457586 73.480725 C 85.73467 74.234304 86.75167 75.334664 87.508584 76.781804 C 88.265498 78.22561 88.829016 79.806126 89.195802 81.52002 C 89.582596 83.233914 89.809336 84.814431 89.879359 86.261571 C 89.946048 87.168534 89.785995 87.982134 89.399202 88.705704 C 89.029081 89.429274 88.532252 90.026135 87.912049 90.496289 Z M 62.927212 68.612466 C 61.350029 69.102626 59.742837 69.589452 58.112304 70.076278 C 56.498443 70.546432 54.904588 71.059933 53.324071 71.613447 C 52.280397 71.883536 51.263397 72.176965 50.273073 72.49707 C 49.28275 72.797168 48.299095 73.083928 47.322108 73.354016 C 47.122043 74.531068 46.575198 75.494717 45.684906 76.251631 C 48.222403 74.941202 50.819919 73.774154 53.47412 72.747151 C 56.131656 71.706811 58.725838 70.67314 61.263334 69.646137 C 61.820183 69.379383 62.407042 69.13597 63.030579 68.915898 Z M 40.113084 104.337482 C 40.869998 104.404171 41.726945 104.420843 42.683925 104.387499 C 43.644239 104.354154 44.197753 104.304138 44.347802 104.234115 C 44.484514 104.234115 44.584547 104.200771 44.651235 104.134082 C 45.0547 103.934017 45.464834 103.723948 45.884972 103.503876 C 46.305109 103.303811 46.685233 103.100411 47.02201 102.900346 C 47.845613 102.480208 48.652544 102.06674 49.442802 101.663274 C 50.229726 101.243137 51.003312 100.833003 51.760226 100.429538 L 51.760226 100.202797 C 50.869935 100.556246 49.9463 100.90636 48.985986 101.259809 C 48.029006 101.596586 47.062023 101.933363 46.088372 102.27014 C 45.131392 102.620254 44.147737 102.983706 43.137407 103.353827 C 42.147083 103.74062 41.140087 104.067394 40.113084 104.337482 Z M 40.113084 104.337482 " stroke="#323232" stroke-width="8.26144" stroke-opacity="1" stroke-miterlimit="4"/><g fill="#5d87ff" fill-opacity="1"><g transform="translate(71.383258, 222.726119)"><g><path d="M 2.78125 -63.875 C 6.8125 -65.96875 11.003906 -67.738281 15.359375 -69.1875 C 19.710938 -70.644531 24.066406 -71.9375 28.421875 -73.0625 L 31.203125 -73.796875 C 33.703125 -74.273438 36.203125 -74.734375 38.703125 -75.171875 C 41.203125 -75.617188 43.742188 -75.925781 46.328125 -76.09375 C 46.890625 -76.164062 47.429688 -76.203125 47.953125 -76.203125 C 48.484375 -76.203125 49.03125 -76.203125 49.59375 -76.203125 C 47.257812 -75.640625 44.878906 -75.054688 42.453125 -74.453125 C 40.035156 -73.847656 37.660156 -73.265625 35.328125 -72.703125 C 31.210938 -71.816406 27.117188 -70.867188 23.046875 -69.859375 C 18.972656 -68.847656 14.921875 -67.660156 10.890625 -66.296875 C 9.515625 -65.890625 8.160156 -65.421875 6.828125 -64.890625 C 5.503906 -64.367188 4.15625 -63.785156 2.78125 -63.140625 C 2.457031 -63.304688 2.457031 -63.550781 2.78125 -63.875 Z M 70.640625 -14.640625 C 70.484375 -13.910156 70.082031 -13.503906 69.4375 -13.421875 C 65 -12.617188 60.539062 -11.628906 56.0625 -10.453125 C 51.59375 -9.285156 47.21875 -7.9375 42.9375 -6.40625 C 40.925781 -5.6875 38.890625 -4.960938 36.828125 -4.234375 C 34.773438 -3.503906 32.738281 -2.695312 30.71875 -1.8125 L 30.609375 -1.8125 C 30.523438 -1.726562 30.398438 -1.664062 30.234375 -1.625 C 30.078125 -1.59375 29.921875 -1.535156 29.765625 -1.453125 C 29.117188 -1.128906 28.453125 -0.84375 27.765625 -0.59375 C 27.078125 -0.351562 26.410156 -0.078125 25.765625 0.234375 L 25.640625 0.359375 C 25.160156 0.679688 24.253906 1.082031 22.921875 1.5625 C 21.585938 2.050781 20.335938 2.457031 19.171875 2.78125 C 18.003906 3.101562 17.421875 3.265625 17.421875 3.265625 C 17.421875 3.265625 17.28125 3.285156 17 3.328125 C 16.71875 3.367188 16.453125 3.390625 16.203125 3.390625 C 15.242188 3.546875 14.28125 3.539062 13.3125 3.375 C 12.34375 3.21875 11.613281 2.617188 11.125 1.578125 C 10.882812 1.085938 10.847656 0.519531 11.015625 -0.125 C 9.472656 -0.769531 8.28125 -1.878906 7.4375 -3.453125 C 6.59375 -5.023438 6.453125 -6.578125 7.015625 -8.109375 C 6.691406 -10.203125 6.425781 -12.316406 6.21875 -14.453125 C 6.019531 -16.585938 5.84375 -18.707031 5.6875 -20.8125 L 4.234375 -35.328125 L 2.78125 -49.109375 C 1.25 -50.804688 0.601562 -52.785156 0.84375 -55.046875 C 1.082031 -57.296875 2.09375 -59.1875 3.875 -60.71875 C 3.945312 -60.882812 4.023438 -61.046875 4.109375 -61.203125 C 4.191406 -61.367188 4.273438 -61.53125 4.359375 -61.6875 C 5.648438 -62.257812 6.9375 -62.785156 8.21875 -63.265625 C 9.507812 -63.753906 10.800781 -64.195312 12.09375 -64.59375 C 16.125 -65.96875 20.175781 -67.15625 24.25 -68.15625 C 28.320312 -69.164062 32.414062 -70.078125 36.53125 -70.890625 C 39.757812 -71.609375 42.945312 -72.390625 46.09375 -73.234375 C 49.238281 -74.085938 52.382812 -74.914062 55.53125 -75.71875 C 55.925781 -75.644531 56.34375 -75.585938 56.78125 -75.546875 C 57.226562 -75.503906 57.613281 -75.40625 57.9375 -75.25 L 59.875 -74.515625 C 60.195312 -74.273438 60.519531 -74.015625 60.84375 -73.734375 C 61.164062 -73.453125 61.488281 -73.1875 61.8125 -72.9375 C 62.21875 -71.65625 62.5 -70.390625 62.65625 -69.140625 C 62.820312 -67.890625 62.785156 -66.65625 62.546875 -65.4375 L 56.5 -63.625 C 55.207031 -63.226562 53.851562 -62.828125 52.4375 -62.421875 C 51.03125 -62.015625 49.640625 -61.609375 48.265625 -61.203125 C 47.941406 -61.046875 47.703125 -60.96875 47.546875 -60.96875 C 46.015625 -60.5625 44.21875 -60.054688 42.15625 -59.453125 C 40.101562 -58.847656 38.046875 -58.242188 35.984375 -57.640625 C 33.929688 -57.035156 32.175781 -56.488281 30.71875 -56 C 29.269531 -55.519531 28.382812 -55.203125 28.0625 -55.046875 C 26.125 -54.398438 24.1875 -53.710938 22.25 -52.984375 C 20.320312 -52.253906 18.429688 -51.488281 16.578125 -50.6875 L 16.328125 -50.4375 C 16.410156 -50.039062 16.507812 -49.378906 16.625 -48.453125 C 16.75 -47.523438 16.867188 -46.65625 16.984375 -45.84375 C 17.109375 -45.039062 17.171875 -44.519531 17.171875 -44.28125 C 20.566406 -45.726562 23.9375 -47.15625 27.28125 -48.5625 C 30.625 -49.976562 34.03125 -51.332031 37.5 -52.625 C 39.4375 -53.101562 41.390625 -53.601562 43.359375 -54.125 C 45.335938 -54.65625 47.296875 -55.203125 49.234375 -55.765625 L 50.8125 -56.125 C 51.53125 -56.289062 52.234375 -56.394531 52.921875 -56.4375 C 53.609375 -56.476562 54.316406 -56.535156 55.046875 -56.609375 C 56.578125 -56.691406 58.023438 -56.59375 59.390625 -56.3125 C 60.765625 -56.03125 61.851562 -55.160156 62.65625 -53.703125 C 62.820312 -53.546875 62.925781 -53.382812 62.96875 -53.21875 C 63.007812 -53.0625 63.066406 -52.90625 63.140625 -52.75 C 63.304688 -52.5 63.425781 -52.253906 63.5 -52.015625 C 63.582031 -51.773438 63.664062 -51.535156 63.75 -51.296875 C 63.832031 -51.210938 63.914062 -51.171875 64 -51.171875 C 65.125 -50.609375 65.804688 -49.597656 66.046875 -48.140625 C 66.285156 -47.015625 66.101562 -45.863281 65.5 -44.6875 C 64.894531 -43.519531 64.03125 -42.65625 62.90625 -42.09375 C 61.613281 -41.53125 60.300781 -41.1875 58.96875 -41.0625 C 57.632812 -40.945312 56.285156 -40.726562 54.921875 -40.40625 C 53.472656 -40.164062 52 -39.898438 50.5 -39.609375 C 49.007812 -39.328125 47.539062 -38.988281 46.09375 -38.59375 C 43.1875 -37.78125 40.300781 -36.910156 37.4375 -35.984375 C 34.570312 -35.054688 31.726562 -33.988281 28.90625 -32.78125 C 27.132812 -32.050781 25.421875 -31.285156 23.765625 -30.484375 C 22.117188 -29.679688 20.445312 -28.832031 18.75 -27.9375 L 19.46875 -20.078125 C 19.46875 -19.992188 19.46875 -19.929688 19.46875 -19.890625 C 19.46875 -19.859375 19.46875 -19.757812 19.46875 -19.59375 L 19.84375 -19.84375 C 21.207031 -20.488281 22.554688 -21.070312 23.890625 -21.59375 C 25.222656 -22.113281 26.535156 -22.65625 27.828125 -23.21875 L 38.109375 -27.21875 C 38.992188 -27.625 39.898438 -27.988281 40.828125 -28.3125 C 41.753906 -28.632812 42.660156 -28.957031 43.546875 -29.28125 C 44.992188 -29.84375 46.441406 -30.382812 47.890625 -30.90625 C 49.347656 -31.425781 50.804688 -31.929688 52.265625 -32.421875 L 56.96875 -33.875 C 57.613281 -34.03125 58.257812 -34.25 58.90625 -34.53125 C 59.550781 -34.8125 60.195312 -35.035156 60.84375 -35.203125 C 63.1875 -35.679688 65.101562 -35.476562 66.59375 -34.59375 C 68.082031 -33.707031 69.269531 -32.414062 70.15625 -30.71875 C 71.050781 -29.03125 71.71875 -27.175781 72.15625 -25.15625 C 72.601562 -23.144531 72.863281 -21.289062 72.9375 -19.59375 C 73.019531 -18.550781 72.835938 -17.601562 72.390625 -16.75 C 71.953125 -15.90625 71.367188 -15.203125 70.640625 -14.640625 Z M 41.375 -40.28125 C 39.519531 -39.71875 37.644531 -39.15625 35.75 -38.59375 C 33.851562 -38.03125 31.976562 -37.425781 30.125 -36.78125 C 28.914062 -36.457031 27.722656 -36.113281 26.546875 -35.75 C 25.378906 -35.382812 24.234375 -35.039062 23.109375 -34.71875 C 22.859375 -33.34375 22.210938 -32.210938 21.171875 -31.328125 C 24.148438 -32.859375 27.191406 -34.226562 30.296875 -35.4375 C 33.398438 -36.65625 36.445312 -37.867188 39.4375 -39.078125 C 40.082031 -39.398438 40.769531 -39.679688 41.5 -39.921875 Z M 14.640625 1.578125 C 15.523438 1.648438 16.53125 1.664062 17.65625 1.625 C 18.789062 1.59375 19.4375 1.535156 19.59375 1.453125 C 19.757812 1.453125 19.878906 1.410156 19.953125 1.328125 C 20.441406 1.085938 20.925781 0.84375 21.40625 0.59375 C 21.894531 0.351562 22.335938 0.113281 22.734375 -0.125 C 23.703125 -0.601562 24.648438 -1.082031 25.578125 -1.5625 C 26.503906 -2.050781 27.414062 -2.539062 28.3125 -3.03125 L 28.3125 -3.265625 C 27.257812 -2.859375 26.164062 -2.453125 25.03125 -2.046875 C 23.90625 -1.648438 22.78125 -1.25 21.65625 -0.84375 C 20.519531 -0.4375 19.367188 -0.015625 18.203125 0.421875 C 17.035156 0.867188 15.847656 1.253906 14.640625 1.578125 Z M 14.640625 1.578125 "/></g></g></g></svg>